<?xml version="1.0" standalone="no"?><!DOCTYPE svg PUBLIC "-//W3C//DTD SVG 1.1//EN" "http://www.w3.org/Graphics/SVG/1.1/DTD/svg11.dtd"><svg t="1744378958839" class="icon" viewBox="0 0 1024 1024" version="1.1" xmlns="http://www.w3.org/2000/svg" p-id="940" xmlns:xlink="http://www.w3.org/1999/xlink" width="200" height="200"><path d="M511.86642034 257.13559438h-0.4110154a36.40773291 36.40773291 0 0 1-36.02137884-36.38307157v-0.4110154c0-0.11919474 0.13152483-13.33744526 0.13152483-72.42911175V38.68508615a36.40773291 36.40773291 0 1 1 72.81957661 0V147.91239566c0 59.83149283-0.12741518 72.68394098-0.13563563 73.20181988a36.41184256 36.41184256 0 0 1-36.38307157 36.02137884zM511.99794517 1021.72264675a36.40773291 36.40773291 0 0 1-36.4077329-36.4077329v-109.65887545c0-58.72175218-0.12741518-71.87835107-0.13152484-72.00576626s0-0.27537977 0-0.41101425a36.40773291 36.40773291 0 0 1 72.81546582-0.35758422c0 0.5178789 0.13563449 13.32511517 0.13563448 72.85656804v109.57667214a36.40773291 36.40773291 0 0 1-36.41184256 36.4077329zM305.94776861 342.49524565a36.29264896 36.29264896 0 0 1-26.01726749-10.9371153c-0.08631296-0.08631296-9.33826674-9.52322389-51.12207929-51.30703758L151.54988032 203.01310293a36.40773291 36.40773291 0 0 1 51.4919936-51.4878828L280.2757541 228.7591003c42.30580224 42.30580224 51.30292679 51.48788281 51.66873031 51.85779599A36.40773291 36.40773291 0 0 1 305.94776861 342.49524565zM846.66302123 883.0460928a36.29675861 36.29675861 0 0 1-25.74599737-10.66584633L743.67903403 795.14636629c-41.78381255-41.78381255-51.22072349-51.03987712-51.3111461-51.13029973a36.40773291 36.40773291 0 0 1 50.94534258-52.03042304c0.36991431 0.36169387 9.55199488 9.36292807 51.85779712 51.66872917l77.23388018 77.23388018a36.40773291 36.40773291 0 0 1-25.74188658 62.15783993zM184.32012857 883.0460928a36.29675861 36.29675861 0 0 0 25.74599623-10.66584633l77.23388018-77.23388018c41.78381255-41.78381255 51.22483314-51.03987712 51.31114723-51.13029973a36.40773291 36.40773291 0 0 0-50.94534371-52.03042304c-0.36991431 0.36169387-9.55199488 9.36292807-51.85779712 51.66872917l-77.23388018 77.23799097a36.40773291 36.40773291 0 0 0 25.74599737 62.15372914zM220.6703195 548.47555015h-0.41101539c-0.11919474 0-13.33744526-0.13152483-72.42911176-0.13152484H38.61932373a36.40773291 36.40773291 0 1 1 0-72.81957546h109.22319872c59.83149283 0 72.68394098 0.12741518 73.20182102 0.13563449a36.40773291 36.40773291 0 0 1 36.0213777 36.38307271v0.4110154a36.41184256 36.41184256 0 0 1-36.39540167 36.0213777zM803.20226645 548.47555015a36.41184256 36.41184256 0 0 1-36.40362325-36.02959815v-0.41101539a36.40773291 36.40773291 0 0 1 36.02137885-36.37485227c0.5178789 0 13.37443669-0.13563449 73.20593066-0.13563449h109.22730838a36.40773291 36.40773291 0 0 1 0 72.81957546H876.02595271c-59.09166535 0-72.30991701 0.12741518-72.4373322 0.13152484h-0.3822444zM717.93714745 342.491136a36.40773291 36.40773291 0 0 1-26.0131567-61.87423971c0.36169387-0.36991431 9.36292807-9.55199488 51.66873032-51.85779599l77.23388018-77.23799097A36.40773291 36.40773291 0 1 1 872.32681415 203.01310293l-77.24621028 77.23388018c-35.29388146 35.29799111-47.38184078 47.51336562-50.33703992 50.50966699l-0.79325981 0.82203079a36.30497906 36.30497906 0 0 1-26.01315669 10.91245511z" p-id="941"></path></svg>